<?xml version="1.0" encoding="UTF-8"?> <svg xmlns="http://www.w3.org/2000/svg" width="113.074" height="113.074" viewBox="0 0 113.074 113.074"><g id="Symbol_15_1" data-name="Symbol 15 – 1" transform="translate(6393.432 -4079.207)"><rect id="Rectangle_766" data-name="Rectangle 766" width="11.926" height="21.201" transform="translate(-6339.104 4081.415)" fill="#72d8ff"></rect><rect id="Rectangle_767" data-name="Rectangle 767" width="11.926" height="21.201" transform="translate(-6383.715 4081.415)" fill="#72d8ff"></rect><rect id="Rectangle_768" data-name="Rectangle 768" width="11.926" height="21.201" transform="translate(-6294.492 4081.415)" fill="#72d8ff"></rect><path id="Path_447" data-name="Path 447" d="M2592.7,5462.446l-11.68-2.418a3.35,3.35,0,0,0-6.686,0l-11.6,2.41a15.167,15.167,0,0,0-12.082,14.85v7.532H2604.8V5477.3a15.169,15.169,0,0,0-12.092-14.852Zm0,0" transform="translate(-8905.712 -1294.75)" fill="#fff"></path><path id="Path_448" data-name="Path 448" d="M2577.905,5451.534h-11.241v5.241l5.621,8.952,5.62-8.952Zm0,0" transform="translate(-8905.712 -1294.75)" fill="#fff"></path><path id="Path_449" data-name="Path 449" d="M2574.873,5406.5a16.5,16.5,0,0,0-10.438,15.341v13.195a11.221,11.221,0,1,0,20.875,0v-13.195a16.494,16.494,0,0,0-10.437-15.341Zm0,0" transform="translate(-8905.712 -1294.75)" fill="#fff"></path><path id="Path_450" data-name="Path 450" d="M2584.254,5419l.683-.645a10.788,10.788,0,1,0-20.5,3.49v6.512l.051.012a28.442,28.442,0,0,0,18.693-8.294Zm0,0" transform="translate(-8905.712 -1294.75)" fill="#47bee2"></path><path id="Path_451" data-name="Path 451" d="M2594.262,5458.625l-12.546-2.6a2.519,2.519,0,0,1-2-2.459v-3.342a18.686,18.686,0,0,0,7.8-15.185v-13.195a18.7,18.7,0,1,0-37.405,0v13.195a18.685,18.685,0,0,0,7.71,15.117v3.412a2.523,2.523,0,0,1-2,2.46l-12.462,2.589a18.574,18.574,0,0,0-14.738,18.113v8.09a2.209,2.209,0,0,0,2.209,2.209h49.028a2.208,2.208,0,1,0,0-4.417h-46.82v-5.882a14.139,14.139,0,0,1,11.219-13.788l12.463-2.589a6.875,6.875,0,0,0,2.056-.79l8.121,12.936a2.208,2.208,0,0,0,3.741,0l8.123-12.937a6.878,6.878,0,0,0,2.059.789l12.545,2.6a14.136,14.136,0,0,1,11.228,13.79v5.873h-3.534a2.208,2.208,0,0,0,0,4.417h5.743a2.209,2.209,0,0,0,2.208-2.209v-8.081a18.573,18.573,0,0,0-14.749-18.116Zm-25.445-51.065a14.31,14.31,0,0,1,13.658,10.1l-.858.857a26.053,26.053,0,0,1-18.545,7.682h-8.541v-4.35a14.3,14.3,0,0,1,14.286-14.286Zm-14.286,27.481v-4.428h8.541a30.421,30.421,0,0,0,20.03-7.45v11.878a14.286,14.286,0,0,1-28.571,0Zm14.237,32.132-6.989-11.133a6.874,6.874,0,0,0,.461-2.47v-1.024a18.678,18.678,0,0,0,13.057.038v.984a6.863,6.863,0,0,0,.462,2.472Zm0,0" transform="translate(-8905.712 -1294.75)" fill="#080a2a"></path><path id="Path_452" data-name="Path 452" d="M2591.122,5482.614a2.21,2.21,0,1,0,1.562.647,2.223,2.223,0,0,0-1.562-.647Zm0,0" transform="translate(-8905.712 -1294.75)" fill="#080a2a"></path><path id="Path_453" data-name="Path 453" d="M2559.1,5399.575h19.435a2.208,2.208,0,0,0,2.208-2.209v-21.2a2.207,2.207,0,0,0-2.208-2.208H2559.1a2.208,2.208,0,0,0-2.208,2.208v21.2a2.209,2.209,0,0,0,2.208,2.209Zm2.209-21.2h15.017v16.784h-15.017Zm0,0" transform="translate(-8905.712 -1294.75)" fill="#080a2a"></path><path id="Path_454" data-name="Path 454" d="M2536.131,5397.366v-21.2a2.208,2.208,0,0,0-2.208-2.208h-19.435a2.207,2.207,0,0,0-2.208,2.208v21.2a2.208,2.208,0,0,0,2.208,2.209h19.435a2.209,2.209,0,0,0,2.208-2.209Zm-4.417-2.208H2516.7v-16.784h15.017Zm0,0" transform="translate(-8905.712 -1294.75)" fill="#080a2a"></path><path id="Path_455" data-name="Path 455" d="M2623.145,5373.957h-19.434a2.208,2.208,0,0,0-2.209,2.208v21.2a2.209,2.209,0,0,0,2.209,2.209h19.434a2.209,2.209,0,0,0,2.209-2.209v-21.2a2.208,2.208,0,0,0-2.209-2.208Zm-2.208,21.2h-15.018v-16.784h15.018Zm0,0" transform="translate(-8905.712 -1294.75)" fill="#080a2a"></path><path id="Path_456" data-name="Path 456" d="M2532.361,5410.985a2.207,2.207,0,0,0,0,3.123l6.061,6.062a2.209,2.209,0,0,0,3.124-3.124l-6.062-6.061a2.207,2.207,0,0,0-3.123,0Zm0,0" transform="translate(-8905.712 -1294.75)" fill="#080a2a"></path><path id="Path_457" data-name="Path 457" d="M2528.335,5403.835a2.21,2.21,0,1,0,.647,1.564,2.221,2.221,0,0,0-.647-1.564Zm0,0" transform="translate(-8905.712 -1294.75)" fill="#080a2a"></path><path id="Path_458" data-name="Path 458" d="M2597.649,5420.816a2.205,2.205,0,0,0,1.562-.646l8.633-8.634a2.209,2.209,0,0,0-3.123-3.124l-8.634,8.634a2.208,2.208,0,0,0,1.562,3.77Zm0,0" transform="translate(-8905.712 -1294.75)" fill="#080a2a"></path></g></svg> 