<?xml version="1.0" encoding="UTF-8"?> <svg xmlns="http://www.w3.org/2000/svg" xmlns:xlink="http://www.w3.org/1999/xlink" width="119.025" height="119.026" viewBox="0 0 119.025 119.026"><defs><clipPath id="clip-path"><rect id="Rectangle_764" data-name="Rectangle 764" width="119.025" height="119.025" transform="translate(2278.712 5365.611)" fill="none"></rect></clipPath></defs><g id="Symbol_14_1" data-name="Symbol 14 – 1" transform="translate(6627 -4070.861)"><path id="Path_437" data-name="Path 437" d="M2339.4,5379.337a35.825,35.825,0,0,0-23.7,33.708v2.734l-10.444,23.991h11.391v14.206a11.188,11.188,0,0,0,11.188,11.188h11.948v17.148h23.266l.046-69.244a35.824,35.824,0,0,0-23.7-33.731Zm0,0" transform="translate(-8905.712 -1294.75)" fill="#fff"></path><path id="Path_438" data-name="Path 438" d="M2377.038,5427.393a19.015,19.015,0,0,1,.889-35.784,19.021,19.021,0,0,0-12.878,35.784v5.424a5.575,5.575,0,0,0,5.576,5.575h2.585a5.57,5.57,0,0,0,4.7-2.58,5.55,5.55,0,0,1-.874-3Zm0,0" transform="translate(-8905.712 -1294.75)" fill="#fff"></path><path id="Path_439" data-name="Path 439" d="M2378.785,5427.393a13.756,13.756,0,1,0-1.747,0v5.424a1.625,1.625,0,1,0,1.747,0Zm0,0" transform="translate(-8905.712 -1294.75)" fill="#72d8ff"></path><g id="Group_62" data-name="Group 62" transform="translate(-8905.712 -1294.75)"><g id="Group_61" data-name="Group 61" clip-path="url(#clip-path)"><path id="Path_440" data-name="Path 440" d="M2363.078,5444.172h0a2.325,2.325,0,1,0,2.328,2.325,2.323,2.323,0,0,0-2.328-2.325Zm0,0"></path><path id="Path_441" data-name="Path 441" d="M2363.07,5455.113h0a2.324,2.324,0,0,0-2.324,2.324l-.012,22.55h-42.843v-14.823a2.325,2.325,0,0,0-2.325-2.325h-11.948a8.873,8.873,0,0,1-8.863-8.863V5439.77a2.325,2.325,0,0,0-2.325-2.325h-7.843l9.028-20.738a2.327,2.327,0,0,0,.192-.928v-2.734a33.512,33.512,0,0,1,43.718-31.893,2.325,2.325,0,0,0,1.419-4.428,38.16,38.16,0,0,0-49.786,36.321v2.25l-10.251,23.547a2.326,2.326,0,0,0,2.132,3.253h9.066v11.881a13.528,13.528,0,0,0,13.513,13.512h9.623v14.824a2.325,2.325,0,0,0,2.325,2.325h47.491a2.324,2.324,0,0,0,2.324-2.324l.014-24.874a2.324,2.324,0,0,0-2.323-2.326Zm0,0" fill="#080a2a"></path></g></g><path id="Path_442" data-name="Path 442" d="M2371.92,5388.309l-.331,0a21.345,21.345,0,0,0-8.865,40.607v3.9a7.909,7.909,0,0,0,7.9,7.9h2.585a7.908,7.908,0,0,0,7.9-7.9v-3.9a21.346,21.346,0,0,0-9.189-40.611Zm1.29,47.758h-2.585a3.253,3.253,0,0,1-3.251-3.25v-3.1h9.086v3.1a3.253,3.253,0,0,1-3.25,3.25Zm5.118-11h-4.1a2.187,2.187,0,0,0,.018-.271v-9.317a2.325,2.325,0,0,0-4.65,0v9.317a2.469,2.469,0,0,0,.017.271h-4.1a16.695,16.695,0,0,1,6.153-32.107,16.694,16.694,0,0,1,16.952,16.692,16.808,16.808,0,0,1-10.283,15.415Zm0,0" transform="translate(-8905.712 -1294.75)" fill="#080a2a"></path><path id="Path_443" data-name="Path 443" d="M2371.915,5381.193a2.325,2.325,0,0,0,2.325-2.324v-10.933a2.325,2.325,0,1,0-4.65,0v10.933a2.324,2.324,0,0,0,2.325,2.324Zm0,0" transform="translate(-8905.712 -1294.75)" fill="#080a2a"></path><g id="Group_64" data-name="Group 64" transform="translate(-8905.712 -1294.75)"><g id="Group_63" data-name="Group 63" clip-path="url(#clip-path)"><path id="Path_444" data-name="Path 444" d="M2353.19,5385a2.325,2.325,0,0,0,3.287-3.289l-6.413-6.407a2.325,2.325,0,0,0-3.286,3.29Zm0,0" fill="#080a2a"></path><path id="Path_445" data-name="Path 445" d="M2397.055,5375.312a2.322,2.322,0,0,0-3.287,0l-6.817,6.823a2.325,2.325,0,1,0,3.289,3.286l6.817-6.822a2.322,2.322,0,0,0,0-3.287Zm0,0" fill="#080a2a"></path></g></g><path id="Path_446" data-name="Path 446" d="M2301.71,5414.135a2.326,2.326,0,1,0,1.644-.681,2.348,2.348,0,0,0-1.644.681Zm0,0" transform="translate(-8905.712 -1294.75)" fill="#080a2a"></path></g></svg> 