<?xml version="1.0" encoding="UTF-8"?> <svg xmlns="http://www.w3.org/2000/svg" width="119.025" height="109.727" viewBox="0 0 119.025 109.727"><g id="Symbol_17_1" data-name="Symbol 17 – 1" transform="translate(5740.783 -4503.88)"><path id="Path_480" data-name="Path 480" d="M3318.63,5443.512h-87.04v-61.5a4.056,4.056,0,0,1,4.055-4.056h78.929a4.056,4.056,0,0,1,4.056,4.056Zm0,0" transform="translate(-8942.712 -871.75)" fill="#fff"></path><rect id="Rectangle_770" data-name="Rectangle 770" width="11.634" height="49.221" transform="translate(-5634.812 4508.18)" fill="#72d8ff"></rect><path id="Path_481" data-name="Path 481" d="M3313.834,5472.162l2.739-8.732A44.907,44.907,0,0,0,3318.63,5450v-16.379a4.668,4.668,0,0,0-9.336,0v-3.439a4.667,4.667,0,1,0-9.334,0v-2.956a4.668,4.668,0,0,0-4.668-4.668,4.773,4.773,0,0,0-.708.059c-2.225,4.62-9.36,19.187-11.36,20.2a4.9,4.9,0,0,0-1.933,1.755v1.191l-.325-.6a4.915,4.915,0,0,0-.31,3.2l3.553,14.729a24.8,24.8,0,0,0,4.082,8.809l6.962,9.526v1.61h18.582v-10.87Zm0,0" transform="translate(-8942.712 -871.75)" fill="#fff"></path><path id="Path_482" data-name="Path 482" d="M3241.593,5483.032v-10.87l6.962-9.526a24.791,24.791,0,0,0,4.081-8.809l3.553-14.729a4.921,4.921,0,0,0-9.114-3.494l-5.482,10.15v-33.8a4.667,4.667,0,1,0-9.335,0v15.264a4.667,4.667,0,0,0-9.334,0v2.957a4.663,4.663,0,0,0-7.357-3.811V5436.6a63.081,63.081,0,0,0,2.891,18.881l3.848,12.272v15.278Zm0,0" transform="translate(-8942.712 -871.75)" fill="#fff"></path><path id="Path_483" data-name="Path 483" d="M3320.954,5382.6a6.982,6.982,0,0,0-6.974-6.975H3208.9a6.982,6.982,0,0,0-6.974,6.975v50.911c0,.012,0,.023,0,.034s0,.045,0,.067V5450a47.169,47.169,0,0,0,2.164,14.131l2.632,8.391v10.514a2.324,2.324,0,1,0,4.649,0v-10.871a2.324,2.324,0,0,0-.107-.7l-2.738-8.731a42.534,42.534,0,0,1-1.951-12.739v-16.379a2.343,2.343,0,0,1,4.685,0v5.7a2.325,2.325,0,1,0,4.65,0v-9.136a2.343,2.343,0,1,1,4.686,0v9.136a2.324,2.324,0,1,0,4.649,0v-12.093a2.343,2.343,0,0,1,4.686,0v12.093a2.324,2.324,0,1,0,4.649,0v-27.357a2.343,2.343,0,1,1,4.685,0v33.8a2.325,2.325,0,0,0,4.371,1.1l5.481-10.15a2.6,2.6,0,0,1,4.809,1.843l-3.553,14.73a22.32,22.32,0,0,1-3.7,7.981l-6.961,9.527a2.325,2.325,0,0,0-.448,1.371v10.871a2.324,2.324,0,1,0,4.649,0v-10.111l6.514-8.914a26.98,26.98,0,0,0,4.465-9.634l2.059-8.536h8.974l2.058,8.535a27,27,0,0,0,4.464,9.635l6.515,8.914v10.111a2.324,2.324,0,1,0,4.649,0v-10.871a2.322,2.322,0,0,0-.448-1.371l-6.962-9.527a22.311,22.311,0,0,1-3.7-7.982l-3.555-14.729a2.6,2.6,0,0,1,4.811-1.843l5.481,10.15a2.325,2.325,0,0,0,4.37-1.1v-33.8a2.343,2.343,0,1,1,4.685,0v27.357a2.325,2.325,0,1,0,4.65,0v-12.093a2.343,2.343,0,1,1,4.685,0v12.093a2.325,2.325,0,1,0,4.65,0v-9.136a2.343,2.343,0,1,1,4.685,0v9.136a2.324,2.324,0,1,0,4.649,0v-5.7a2.343,2.343,0,0,1,4.686,0V5450a42.534,42.534,0,0,1-1.951,12.739l-2.738,8.732a2.338,2.338,0,0,0-.107.7v10.87a2.325,2.325,0,0,0,4.65,0v-10.514l2.631-8.392a47.158,47.158,0,0,0,2.164-14.13v-16.379c0-.023,0-.045,0-.067s0-.022,0-.034Zm-56.52,57.038.373,1.544h-6.731l.374-1.544a7.216,7.216,0,0,0-2.431-7.29h10.845a7.213,7.213,0,0,0-2.43,7.29Zm49.528-13.019a6.99,6.99,0,0,1-9.335-3.439,6.99,6.99,0,0,1-9.335-2.956,6.95,6.95,0,0,0-2.342.4v-8.676a6.992,6.992,0,0,0-13.985,0v24.6l-1.11-2.058a7.222,7.222,0,0,0-4.862-3.658,2.319,2.319,0,0,0-2.175-3.138H3254.7a2.319,2.319,0,0,0-2.2,3.07,7.208,7.208,0,0,0-7.471,3.726l-1.112,2.058v-24.6a6.991,6.991,0,1,0-13.983,0v8.676a10.5,10.5,0,0,1-11.679,2.552,6.993,6.993,0,0,1-9.335,3.44,6.976,6.976,0,0,0-2.342.4V5382.6a2.327,2.327,0,0,1,2.325-2.325H3313.98a2.327,2.327,0,0,1,2.325,2.325v44.424a7,7,0,0,0-2.343-.4Zm0,0" transform="translate(-8942.712 -871.75)"></path><path id="Path_484" data-name="Path 484" d="M3216.807,5406.318h10a2.325,2.325,0,1,0,0-4.65h-10a2.325,2.325,0,1,0,0,4.65Zm0,0" transform="translate(-8942.712 -871.75)"></path><path id="Path_485" data-name="Path 485" d="M3252.436,5403.993a2.326,2.326,0,0,0-2.325-2.325h-3.682a2.325,2.325,0,1,0,0,4.65h3.682a2.326,2.326,0,0,0,2.325-2.325Zm0,0" transform="translate(-8942.712 -871.75)"></path><path id="Path_486" data-name="Path 486" d="M3216.807,5419.335h4.016a2.324,2.324,0,0,0,0-4.649h-4.016a2.324,2.324,0,1,0,0,4.649Zm0,0" transform="translate(-8942.712 -871.75)"></path><path id="Path_487" data-name="Path 487" d="M3249.669,5417.01a2.325,2.325,0,0,0,2.325,2.325h4.327a2.324,2.324,0,1,0,0-4.649h-4.327a2.324,2.324,0,0,0-2.325,2.324Zm0,0" transform="translate(-8942.712 -871.75)"></path><path id="Path_488" data-name="Path 488" d="M3216.807,5393.3h8.032a2.324,2.324,0,1,0,0-4.649h-8.032a2.324,2.324,0,1,0,0,4.649Zm0,0" transform="translate(-8942.712 -871.75)"></path><path id="Path_489" data-name="Path 489" d="M3250.111,5388.65h-7.364a2.324,2.324,0,1,0,0,4.649h7.364a2.324,2.324,0,1,0,0-4.649Zm0,0" transform="translate(-8942.712 -871.75)"></path><path id="Path_490" data-name="Path 490" d="M3233.915,5393.3a2.321,2.321,0,1,0-1.644-.679,2.343,2.343,0,0,0,1.644.679Zm0,0" transform="translate(-8942.712 -871.75)"></path><path id="Path_491" data-name="Path 491" d="M3256.211,5403.993a2.326,2.326,0,0,0,2.325,2.325h6.16a2.325,2.325,0,1,0,0-4.65h-6.16a2.325,2.325,0,0,0-2.325,2.325Zm0,0" transform="translate(-8942.712 -871.75)"></path><path id="Path_492" data-name="Path 492" d="M3277.382,5405.636a2.325,2.325,0,1,0-1.643.681,2.343,2.343,0,0,0,1.643-.681Zm0,0" transform="translate(-8942.712 -871.75)"></path><path id="Path_493" data-name="Path 493" d="M3295.083,5403.993a2.326,2.326,0,0,0,2.325,2.325h8.748a2.325,2.325,0,1,0,0-4.65h-8.748a2.325,2.325,0,0,0-2.325,2.325Zm0,0" transform="translate(-8942.712 -871.75)"></path><path id="Path_494" data-name="Path 494" d="M3268.144,5414.686a2.324,2.324,0,0,0,0,4.649h4.689a2.324,2.324,0,0,0,0-4.649Zm0,0" transform="translate(-8942.712 -871.75)"></path><path id="Path_495" data-name="Path 495" d="M3305.7,5414.686h-4.328a2.324,2.324,0,1,0,0,4.649h4.328a2.324,2.324,0,1,0,0-4.649Zm0,0" transform="translate(-8942.712 -871.75)"></path><path id="Path_496" data-name="Path 496" d="M3267.6,5388.65h-6.16a2.324,2.324,0,1,0,0,4.649h6.16a2.324,2.324,0,1,0,0-4.649Zm0,0" transform="translate(-8942.712 -871.75)"></path><path id="Path_497" data-name="Path 497" d="M3306.106,5393.3a2.324,2.324,0,1,0,0-4.649h-7.7a2.324,2.324,0,1,0,0,4.649Zm0,0" transform="translate(-8942.712 -871.75)"></path><path id="Path_498" data-name="Path 498" d="M3286.432,5393.3a2.324,2.324,0,1,0,0-4.649h-5.092a2.324,2.324,0,1,0,0,4.649Zm0,0" transform="translate(-8942.712 -871.75)"></path></g></svg> 