<?xml version="1.0" encoding="UTF-8"?> <svg xmlns="http://www.w3.org/2000/svg" width="82.832" height="82.828" viewBox="0 0 82.832 82.828"><g transform="translate(645.125 -3065.875)"><path d="M301.936,4236.585a1.376,1.376,0,0,0,1.946-1.946l-4.6-4.6a1.376,1.376,0,0,0-1.947,1.946Zm0,0" transform="translate(-896.51 -1154)" fill="#080a2a" stroke="#080a2a" stroke-miterlimit="10" stroke-width="0.25"></path><path d="M287.3,4243.4a1.376,1.376,0,0,0,1.376,1.376h6.879a1.376,1.376,0,1,0,0-2.753h-6.879a1.376,1.376,0,0,0-1.376,1.377Zm0,0" transform="translate(-896.51 -1154)" fill="#080a2a" stroke="#080a2a" stroke-miterlimit="10" stroke-width="0.25"></path><path d="M287.3,4225.5a1.376,1.376,0,1,0-1.376-1.376,1.376,1.376,0,0,0,1.376,1.376Zm0,0" transform="translate(-896.51 -1154)" fill="#080a2a" stroke="#080a2a" stroke-miterlimit="10" stroke-width="0.25"></path><path d="M329.963,4231.011a1.377,1.377,0,1,0-1.377-1.377,1.376,1.376,0,0,0,1.377,1.377Zm0,0" transform="translate(-896.51 -1154)" fill="#080a2a" stroke="#080a2a" stroke-miterlimit="10" stroke-width="0.25"></path><path d="M318.48,4236.989a1.368,1.368,0,0,0,.973-.4l4.6-4.6a1.376,1.376,0,0,0-1.946-1.946l-4.6,4.6a1.377,1.377,0,0,0,.973,2.35Zm0,0" transform="translate(-896.51 -1154)" fill="#080a2a" stroke="#080a2a" stroke-miterlimit="10" stroke-width="0.25"></path><path d="M310.694,4233.764a1.377,1.377,0,0,0,1.376-1.376v-11.011a1.377,1.377,0,1,0-2.753,0v11.011a1.376,1.376,0,0,0,1.377,1.376Zm0,0" transform="translate(-896.51 -1154)" fill="#080a2a" stroke="#080a2a" stroke-miterlimit="10" stroke-width="0.25"></path><path d="M306.8,4239.5l-13.957,13.957a1.376,1.376,0,0,0,1.946,1.947l13.958-13.958a2.753,2.753,0,0,1,3.892,3.894l-53.679,53.678a2.753,2.753,0,1,1-3.892-3.894l34.812-34.812,1.258,1.26a1.377,1.377,0,0,0,1.946-1.948l-2.231-2.231a1.375,1.375,0,0,0-1.946,0l-35.785,35.785a5.505,5.505,0,0,0,7.785,7.786l53.678-53.678a5.505,5.505,0,0,0-7.785-7.786Zm0,0" transform="translate(-896.51 -1154)" fill="#080a2a" stroke="#080a2a" stroke-miterlimit="10" stroke-width="0.25"></path><path d="M332.716,4266.8h-1.377v-1.375a1.376,1.376,0,1,0-2.753,0v1.375h-1.375a1.376,1.376,0,1,0,0,2.753h1.375v1.377a1.376,1.376,0,0,0,2.753,0v-1.377h1.377a1.376,1.376,0,0,0,0-2.753Zm0,0" transform="translate(-896.51 -1154)" fill="#080a2a" stroke="#080a2a" stroke-miterlimit="10" stroke-width="0.25"></path><path d="M319.451,4250.21a1.376,1.376,0,1,0-1.946,1.946l4.6,4.6a1.376,1.376,0,0,0,1.946-1.946Zm0,0" transform="translate(-896.51 -1154)" fill="#080a2a" stroke="#080a2a" stroke-miterlimit="10" stroke-width="0.25"></path><path d="M332.716,4242.022H321.7a1.376,1.376,0,1,0,0,2.753h11.011a1.376,1.376,0,0,0,0-2.753Zm0,0" transform="translate(-896.51 -1154)" fill="#080a2a" stroke="#080a2a" stroke-miterlimit="10" stroke-width="0.25"></path><path d="M310.694,4257.162a1.376,1.376,0,0,0-1.377,1.376v6.881a1.377,1.377,0,0,0,2.753,0v-6.881a1.376,1.376,0,0,0-1.376-1.376Zm0,0" transform="translate(-896.51 -1154)" fill="#080a2a" stroke="#080a2a" stroke-miterlimit="10" stroke-width="0.25"></path><path d="M272.155,4242.022h1.377v1.377a1.376,1.376,0,0,0,2.752,0v-1.377h1.377a1.376,1.376,0,0,0,0-2.753h-1.377v-1.376a1.376,1.376,0,0,0-2.752,0v1.376h-1.377a1.376,1.376,0,0,0,0,2.753Zm0,0" transform="translate(-896.51 -1154)" fill="#080a2a" stroke="#080a2a" stroke-miterlimit="10" stroke-width="0.25"></path><path d="M305.188,4272.3a1.377,1.377,0,1,0,1.376,1.376,1.375,1.375,0,0,0-1.376-1.376Zm0,0" transform="translate(-896.51 -1154)" fill="#080a2a" stroke="#080a2a" stroke-miterlimit="10" stroke-width="0.25"></path></g></svg> 