<?xml version="1.0" encoding="UTF-8"?> <svg xmlns="http://www.w3.org/2000/svg" width="92" height="63.387" viewBox="0 0 92 63.387"><g transform="translate(1381 -3348)"><path d="M1457.921,3928.906h-85.842a3.084,3.084,0,0,0-3.079,3.08v50.868a3.084,3.084,0,0,0,3.079,3.081H1399.2v3.377h-9.638a1.49,1.49,0,0,0,0,2.981h50.869a1.49,1.49,0,0,0,0-2.981H1430.8v-3.377h27.123a3.084,3.084,0,0,0,3.079-3.081v-50.868a3.084,3.084,0,0,0-3.079-3.08Zm-30.1,60.406h-25.633v-3.377h25.633Zm30.2-6.458a.1.1,0,0,1-.1.1h-85.842a.1.1,0,0,1-.1-.1v-50.868a.1.1,0,0,1,.1-.1h85.842a.1.1,0,0,1,.1.1Zm0,0" transform="translate(-2750 -580.906)" fill="#080a2a"></path><path d="M1453.152,3935.265h-76.3a1.489,1.489,0,0,0-1.49,1.49v41.331a1.489,1.489,0,0,0,1.49,1.49h76.3a1.49,1.49,0,0,0,1.49-1.49v-41.331a1.49,1.49,0,0,0-1.49-1.49Zm-1.49,41.33H1378.34v-38.349h73.322Zm0,0" transform="translate(-2750 -580.906)" fill="#080a2a"></path><path d="M1410.348,3949.213a1.443,1.443,0,0,0-.723,1.251v14.09a1.445,1.445,0,0,0,2.168,1.252l12.2-7.045a1.445,1.445,0,0,0,0-2.5l-12.2-7.044a1.442,1.442,0,0,0-1.445,0Zm2.168,3.755,7.865,4.541-7.865,4.542Zm0,0" transform="translate(-2750 -580.906)" fill="#080a2a"></path></g></svg> 