<?xml version="1.0" encoding="UTF-8"?> <svg xmlns="http://www.w3.org/2000/svg" width="185.25" height="185.25" viewBox="0 0 185.25 185.25"><g id="Symbol_13_4" data-name="Symbol 13 – 4" transform="translate(5453.84 -4042)"><rect id="Rectangle_771" data-name="Rectangle 771" width="89.501" height="80.9" transform="translate(-5395.617 4097.688)" fill="#fff"></rect><path id="Path_499" data-name="Path 499" d="M3594.326,5451.951v-46.494a4.65,4.65,0,0,1,4.65-4.65h-7.749a4.649,4.649,0,0,0-4.649,4.65v46.494a4.649,4.649,0,0,0,4.649,4.649h7.749a4.65,4.65,0,0,1-4.65-4.649Zm0,0" transform="translate(-8905.712 -1294.75)" fill="#fff"></path><path id="Path_500" data-name="Path 500" d="M3598.976,5400.807a4.65,4.65,0,0,0-4.65,4.65v46.494a4.649,4.649,0,0,0,4.65,4.649h.62v-55.793Zm0,0" transform="translate(-8905.712 -1294.75)" fill="#72d8ff"></path><path id="Path_501" data-name="Path 501" d="M3498.239,5451.951v-46.494a4.65,4.65,0,0,0-4.65-4.65h-2.906V5456.6h2.906a4.649,4.649,0,0,0,4.65-4.649Zm0,0" transform="translate(-8905.712 -1294.75)" fill="#d8d8e4"></path><path id="Path_502" data-name="Path 502" d="M3528.3,5452.131v-46.854a4.649,4.649,0,0,1,4.649-4.649h-18.907a4.649,4.649,0,0,0-4.65,4.649v46.854a4.649,4.649,0,0,0,4.65,4.649h18.907a4.649,4.649,0,0,1-4.649-4.649Zm0,0" transform="translate(-8905.712 -1294.75)" fill="#fff"></path><path id="Path_503" data-name="Path 503" d="M3575.419,5452.131v-46.854a4.648,4.648,0,0,0-4.649-4.649h-37.816a4.649,4.649,0,0,0-4.649,4.649v46.854a4.648,4.648,0,0,0,4.649,4.649h37.816a4.648,4.648,0,0,0,4.649-4.649Zm0,0" transform="translate(-8905.712 -1294.75)" fill="#fff"></path><path id="Path_504" data-name="Path 504" d="M3562.414,5424.669l-8.3-8.3-40.4,40.4c.109.007.218.016.329.016h16.6c-.11,0-.219-.008-.328-.016Zm0,0" transform="translate(-8905.712 -1294.75)" fill="#fff"></path><path id="Path_505" data-name="Path 505" d="M3575.419,5452.131v-14.456l-13-13.006-32.094,32.1c.109.007.218.016.328.016h40.122a4.648,4.648,0,0,0,4.649-4.649Zm0,0" transform="translate(-8905.712 -1294.75)" fill="#47bee2"></path><path id="Path_506" data-name="Path 506" d="M3524.275,5452.131v-1.575l13.67-13.669-7.439-7.44-21.109,21.109v1.575a4.649,4.649,0,0,0,4.65,4.649h14.878a4.649,4.649,0,0,1-4.65-4.649Zm0,0" transform="translate(-8905.712 -1294.75)" fill="#fff"></path><path id="Path_507" data-name="Path 507" d="M3524.275,5450.556v1.575a4.649,4.649,0,0,0,4.65,4.649h28.914l-19.894-19.893Zm0,0" transform="translate(-8905.712 -1294.75)" fill="#72d8ff"></path><path id="Path_508" data-name="Path 508" d="M3537.385,5415.064a5.115,5.115,0,1,1-5.115-5.114,5.116,5.116,0,0,1,5.115,5.114Zm0,0" transform="translate(-8905.712 -1294.75)" fill="#72d8ff"></path><path id="Path_509" data-name="Path 509" d="M3599.6,5398.483h-8.369a6.981,6.981,0,0,0-6.974,6.974v14.186a2.325,2.325,0,0,0,4.649,0v-14.186a2.327,2.327,0,0,1,2.325-2.325h8.369a2.324,2.324,0,1,0,0-4.649Zm0,0" transform="translate(-8905.712 -1294.75)" fill="#080a2a"></path><path id="Path_510" data-name="Path 510" d="M3586.578,5431.914a2.326,2.326,0,1,0-1.644-.681,2.338,2.338,0,0,0,1.644.681Zm0,0" transform="translate(-8905.712 -1294.75)" fill="#080a2a"></path><path id="Path_511" data-name="Path 511" d="M3599.6,5454.276h-8.369a2.328,2.328,0,0,1-2.325-2.325v-12.063a2.325,2.325,0,1,0-4.649,0v12.063a6.981,6.981,0,0,0,6.974,6.974h8.369a2.324,2.324,0,1,0,0-4.649Zm0,0" transform="translate(-8905.712 -1294.75)" fill="#080a2a"></path><path id="Path_512" data-name="Path 512" d="M3599.6,5471.014H3485.22a2.324,2.324,0,1,0,0,4.649H3599.6a2.324,2.324,0,1,0,0-4.649Zm0,0" transform="translate(-8905.712 -1294.75)" fill="#080a2a"></path><path id="Path_513" data-name="Path 513" d="M3493.589,5454.276h-8.369a2.324,2.324,0,1,0,0,4.649h8.369a6.981,6.981,0,0,0,6.974-6.974v-46.494a6.981,6.981,0,0,0-6.974-6.974h-8.369a2.324,2.324,0,1,0,0,4.649h8.369a2.327,2.327,0,0,1,2.325,2.325v46.494a2.328,2.328,0,0,1-2.325,2.325Zm0,0" transform="translate(-8905.712 -1294.75)" fill="#080a2a"></path><path id="Path_514" data-name="Path 514" d="M3485.22,5386.394H3599.6a2.324,2.324,0,1,0,0-4.649H3485.22a2.324,2.324,0,1,0,0,4.649Zm0,0" transform="translate(-8905.712 -1294.75)" fill="#080a2a"></path><path id="Path_515" data-name="Path 515" d="M3577.744,5452.131v-46.854a6.982,6.982,0,0,0-6.974-6.974h-56.723a6.981,6.981,0,0,0-6.974,6.974v46.854a6.982,6.982,0,0,0,6.974,6.974h56.723a6.982,6.982,0,0,0,6.974-6.974Zm-66.022,0v-.612l18.784-18.783,6.957,6.957a2.325,2.325,0,0,0,3.288-3.288l-8.6-8.6a2.323,2.323,0,0,0-3.287,0l-17.14,17.139v-39.666a2.327,2.327,0,0,1,2.325-2.325h56.723a2.327,2.327,0,0,1,2.324,2.325v26.785l-17.337-17.337a2.325,2.325,0,0,0-3.288,0l-11.427,11.426a2.325,2.325,0,0,0,3.289,3.287l9.783-9.782,18.514,18.515a2.356,2.356,0,0,0,.466.358v13.6a2.326,2.326,0,0,1-2.324,2.324h-56.723a2.326,2.326,0,0,1-2.325-2.324Zm0,0" transform="translate(-8905.712 -1294.75)" fill="#080a2a"></path><path id="Path_516" data-name="Path 516" d="M3494.287,5390.114a2.325,2.325,0,1,0,0,4.649h3.487a2.325,2.325,0,0,0,0-4.649Zm0,0" transform="translate(-8905.712 -1294.75)" fill="#080a2a"></path><path id="Path_517" data-name="Path 517" d="M3520.963,5394.763a2.325,2.325,0,0,0,0-4.649h-3.487a2.325,2.325,0,1,0,0,4.649Zm0,0" transform="translate(-8905.712 -1294.75)" fill="#080a2a"></path><path id="Path_518" data-name="Path 518" d="M3544.152,5394.763a2.325,2.325,0,0,0,0-4.649h-3.487a2.325,2.325,0,1,0,0,4.649Zm0,0" transform="translate(-8905.712 -1294.75)" fill="#080a2a"></path><path id="Path_519" data-name="Path 519" d="M3567.341,5394.763a2.325,2.325,0,0,0,0-4.649h-3.487a2.325,2.325,0,1,0,0,4.649Zm0,0" transform="translate(-8905.712 -1294.75)" fill="#080a2a"></path><path id="Path_520" data-name="Path 520" d="M3587.043,5390.114a2.325,2.325,0,1,0,0,4.649h3.487a2.325,2.325,0,0,0,0-4.649Zm0,0" transform="translate(-8905.712 -1294.75)" fill="#080a2a"></path><path id="Path_521" data-name="Path 521" d="M3494.287,5462.645a2.324,2.324,0,1,0,0,4.649h3.487a2.324,2.324,0,0,0,0-4.649Zm0,0" transform="translate(-8905.712 -1294.75)" fill="#080a2a"></path><path id="Path_522" data-name="Path 522" d="M3517.476,5462.645a2.324,2.324,0,1,0,0,4.649h3.487a2.324,2.324,0,0,0,0-4.649Zm0,0" transform="translate(-8905.712 -1294.75)" fill="#080a2a"></path><path id="Path_523" data-name="Path 523" d="M3540.665,5462.645a2.324,2.324,0,1,0,0,4.649h3.487a2.324,2.324,0,0,0,0-4.649Zm0,0" transform="translate(-8905.712 -1294.75)" fill="#080a2a"></path><path id="Path_524" data-name="Path 524" d="M3563.854,5462.645a2.324,2.324,0,1,0,0,4.649h3.487a2.324,2.324,0,0,0,0-4.649Zm0,0" transform="translate(-8905.712 -1294.75)" fill="#080a2a"></path><path id="Path_525" data-name="Path 525" d="M3590.53,5467.294a2.324,2.324,0,0,0,0-4.649h-3.487a2.324,2.324,0,1,0,0,4.649Zm0,0" transform="translate(-8905.712 -1294.75)" fill="#080a2a"></path><path id="Path_526" data-name="Path 526" d="M3544.687,5441.3a2.324,2.324,0,1,0,1.643.681,2.345,2.345,0,0,0-1.643-.681Zm0,0" transform="translate(-8905.712 -1294.75)" fill="#080a2a"></path><path id="Path_527" data-name="Path 527" d="M3532.27,5407.626a7.439,7.439,0,1,0,7.439,7.439,7.447,7.447,0,0,0-7.439-7.439Zm0,10.229a2.79,2.79,0,1,1,2.79-2.79,2.793,2.793,0,0,1-2.79,2.79Zm0,0" transform="translate(-8905.712 -1294.75)" fill="#080a2a"></path><path id="Path_528" data-name="Path 528" d="M3544.5,5336.75a92.625,92.625,0,1,0,92.625,92.625A92.625,92.625,0,0,0,3544.5,5336.75Zm0,175.275a82.65,82.65,0,1,1,82.65-82.65A82.65,82.65,0,0,1,3544.5,5512.025Z" transform="translate(-8905.712 -1294.75)" fill="#72d8ff"></path></g></svg> 