<?xml version="1.0" encoding="UTF-8"?> <svg xmlns="http://www.w3.org/2000/svg" width="99.55" height="62.537" viewBox="0 0 99.55 62.537"><g transform="translate(287 -3349)"><path d="M1022.308,4322.8a14.217,14.217,0,0,0-20.082,0,1.458,1.458,0,0,0,2.062,2.063,11.3,11.3,0,0,1,15.957,0,1.459,1.459,0,0,0,2.063-2.063Zm0,0" transform="translate(-1215.225 -930)" fill="#080a2a"></path><path d="M1005.115,4326.864a1.458,1.458,0,0,0,2.062,2.062,7.206,7.206,0,0,1,10.18,0,1.458,1.458,0,0,0,2.062-2.062,10.126,10.126,0,0,0-14.3,0Zm0,0" transform="translate(-1215.225 -930)" fill="#080a2a"></path><path d="M1008.1,4330.931a1.458,1.458,0,0,0,2.062,2.062,2.978,2.978,0,0,1,4.207,0,1.458,1.458,0,0,0,2.062-2.062,5.9,5.9,0,0,0-8.331,0Zm0,0" transform="translate(-1215.225 -930)" fill="#080a2a"></path><path d="M967.577,4294.117a2.035,2.035,0,0,0-3.138,1.711V4316.9a2.035,2.035,0,0,0,3.138,1.711l16.35-10.536a2.036,2.036,0,0,0,0-3.423Zm-.222,21.169v-17.842l13.844,8.921Zm0,0" transform="translate(-1215.225 -930)" fill="#080a2a"></path><path d="M1014.726,4306.88a1.459,1.459,0,0,0,1.459-1.458v-19.238a2.3,2.3,0,0,0-2.295-2.294H935.409a2.3,2.3,0,0,0-2.294,2.294v40.361a2.3,2.3,0,0,0,2.294,2.295h56.172a1.458,1.458,0,0,0,0-2.917h-55.55v-39.117h77.237v18.615a1.458,1.458,0,0,0,1.458,1.459Zm0,0" transform="translate(-1215.225 -930)" fill="#080a2a"></path><path d="M1012.266,4310.521a15.508,15.508,0,1,0,15.509,15.507,15.525,15.525,0,0,0-15.509-15.507Zm0,28.1a12.592,12.592,0,1,1,12.592-12.592,12.606,12.606,0,0,1-12.592,12.592Zm0,0" transform="translate(-1215.225 -930)" fill="#080a2a"></path><path d="M1016.946,4279H932.353a4.133,4.133,0,0,0-4.128,4.128V4329.6a4.133,4.133,0,0,0,4.128,4.128h60.532a1.458,1.458,0,1,0,0-2.917H932.353a1.212,1.212,0,0,1-1.211-1.211v-46.473a1.213,1.213,0,0,1,1.211-1.211h84.593a1.212,1.212,0,0,1,1.211,1.211v23.935a1.458,1.458,0,1,0,2.917,0v-23.935A4.133,4.133,0,0,0,1016.946,4279Z" transform="translate(-1215.225 -930)" fill="#080a2a"></path></g></svg> 