<?xml version="1.0" encoding="UTF-8"?> <svg xmlns="http://www.w3.org/2000/svg" width="92" height="63.387" viewBox="0 0 92 63.387"><g transform="translate(1016 -3348)"><g transform="translate(-2261 -580.906)"><path d="M1302.454,3958.9a1.389,1.389,0,0,0,.183,2.773l3.877-.256a1.389,1.389,0,0,0,1.3-1.386v-4.62a1.389,1.389,0,0,0-1.3-1.386l-2.871-.19a13.542,13.542,0,0,0-1.094-2.635l1.9-2.166a1.39,1.39,0,0,0-.063-1.9l-3.268-3.268a1.389,1.389,0,0,0-1.9-.062l-2.164,1.9a13.547,13.547,0,0,0-2.636-1.094l-.19-2.87a1.389,1.389,0,0,0-1.386-1.3h-4.62a1.389,1.389,0,0,0-1.386,1.3l-.189,2.87a13.522,13.522,0,0,0-2.636,1.094l-2.166-1.9a1.389,1.389,0,0,0-1.9.062l-3.267,3.268a1.388,1.388,0,0,0-.063,1.9l1.9,2.166a13.549,13.549,0,0,0-1.094,2.635l-2.87.19a1.389,1.389,0,0,0-1.3,1.386v4.62a1.389,1.389,0,0,0,1.3,1.386l2.87.19a13.583,13.583,0,0,0,1.094,2.636l-1.9,2.164a1.389,1.389,0,0,0,.062,1.9l3.269,3.269a1.39,1.39,0,0,0,1.9.061l2.165-1.9a13.508,13.508,0,0,0,2.636,1.093l.189,2.872a1.39,1.39,0,0,0,1.387,1.3h4.619a1.39,1.39,0,0,0,1.387-1.3l.189-2.872a13.483,13.483,0,0,0,2.636-1.093l1.571,1.376.038.034.556.488a1.39,1.39,0,0,0,1.9-.063l3.268-3.268a1.389,1.389,0,0,0,.063-1.9l-2.562-2.923a1.389,1.389,0,0,0-2.09,1.831l1.7,1.945-1.428,1.428-1.945-1.7a1.388,1.388,0,0,0-1.671-.121,10.828,10.828,0,0,1-3.648,1.513,1.387,1.387,0,0,0-1.1,1.267l-.171,2.579h-2.018l-.17-2.579a1.388,1.388,0,0,0-1.1-1.267,10.793,10.793,0,0,1-3.646-1.513,1.39,1.39,0,0,0-1.672.121l-1.947,1.705-1.427-1.429,1.7-1.944a1.389,1.389,0,0,0,.12-1.673,10.8,10.8,0,0,1-1.513-3.647,1.389,1.389,0,0,0-1.267-1.1l-2.578-.17v-2.018l2.578-.17a1.389,1.389,0,0,0,1.267-1.1,10.766,10.766,0,0,1,1.513-3.644,1.39,1.39,0,0,0-.12-1.673l-1.7-1.946,1.428-1.428,1.946,1.705a1.388,1.388,0,0,0,1.673.12,10.78,10.78,0,0,1,3.644-1.513,1.387,1.387,0,0,0,1.1-1.267l.17-2.578h2.018l.171,2.578a1.387,1.387,0,0,0,1.1,1.267,10.8,10.8,0,0,1,3.647,1.513,1.388,1.388,0,0,0,1.673-.12l1.944-1.705,1.429,1.428-1.705,1.946a1.389,1.389,0,0,0-.12,1.672,10.807,10.807,0,0,1,1.512,3.646,1.387,1.387,0,0,0,1.267,1.1l2.58.171v2.018Z" fill="#080a2a"></path><path d="M1285.721,3954.848a1.388,1.388,0,0,0-1.73.931,6.736,6.736,0,1,0,3.805-4.26,1.39,1.39,0,0,0,1.094,2.555,3.965,3.965,0,1,1-2.4,3.645,4,4,0,0,1,.166-1.142A1.388,1.388,0,0,0,1285.721,3954.848Z" fill="#080a2a"></path></g><path d="M1333.921,3928.906h-85.842a3.084,3.084,0,0,0-3.079,3.08v50.868a3.084,3.084,0,0,0,3.079,3.081H1275.2v3.377h-9.638a1.49,1.49,0,0,0,0,2.981h50.869a1.49,1.49,0,0,0,0-2.981H1306.8v-3.377h27.123a3.084,3.084,0,0,0,3.079-3.081v-50.868a3.084,3.084,0,0,0-3.079-3.08Zm-30.1,60.406h-25.633v-3.377h25.633Zm30.2-6.458a.1.1,0,0,1-.1.1h-85.842a.1.1,0,0,1-.1-.1v-50.868a.1.1,0,0,1,.1-.1h85.842a.1.1,0,0,1,.1.1Zm0,0" transform="translate(-2261 -580.906)" fill="#080a2a"></path><path d="M1329.152,3935.265h-76.3a1.489,1.489,0,0,0-1.49,1.49v41.331a1.489,1.489,0,0,0,1.49,1.49h76.3a1.49,1.49,0,0,0,1.49-1.49v-41.331a1.49,1.49,0,0,0-1.49-1.49Zm-1.49,41.33H1254.34v-38.349h73.322Zm0,0" transform="translate(-2261 -580.906)" fill="#080a2a"></path></g></svg> 