<?xml version="1.0" encoding="UTF-8"?> <svg xmlns="http://www.w3.org/2000/svg" xmlns:xlink="http://www.w3.org/1999/xlink" width="84.06" height="66" viewBox="0 0 84.06 66"><defs><clipPath id="a"><rect width="84.06" height="66" transform="translate(697.97 3984)" fill="none"></rect></clipPath></defs><g transform="translate(1011 -3072)"><g transform="translate(-1708.97 -912)" clip-path="url(#a)"><path d="M780.388,3984H699.612a1.642,1.642,0,0,0-1.642,1.642v62.68a1.642,1.642,0,0,0,1.642,1.642h80.776a1.642,1.642,0,0,0,1.642-1.642v-62.68a1.642,1.642,0,0,0-1.642-1.642Zm-79.134,3.284h77.492v9.527H701.254Zm0,59.4v-46.586h77.492v46.586Zm0,0" fill="#080a2a"></path></g><path d="M773.984,3990.406h-3.5a1.641,1.641,0,1,0,0,3.283h3.5a1.641,1.641,0,1,0,0-3.283Zm0,0" transform="translate(-1708.97 -912)" fill="#080a2a"></path><path d="M764.577,3990.406h-3.5a1.641,1.641,0,1,0,0,3.283h3.5a1.641,1.641,0,1,0,0-3.283Zm0,0" transform="translate(-1708.97 -912)" fill="#080a2a"></path><path d="M755.17,3990.406h-3.5a1.641,1.641,0,0,0,0,3.283h3.5a1.641,1.641,0,1,0,0-3.283Zm0,0" transform="translate(-1708.97 -912)" fill="#080a2a"></path><path d="M774.17,4003.029H740a1.642,1.642,0,0,0-1.642,1.642V4042.1a1.641,1.641,0,0,0,1.642,1.641h10.518a1.642,1.642,0,0,0,0-3.283h-8.876v-34.15h30.886v34.15h-8.876a1.642,1.642,0,1,0,0,3.283H774.17a1.641,1.641,0,0,0,1.642-1.641v-37.434a1.642,1.642,0,0,0-1.642-1.642Zm0,0" transform="translate(-1708.97 -912)" fill="#080a2a"></path><path d="M732.624,4006.97H706.988a1.641,1.641,0,1,0,0,3.283h25.636a1.641,1.641,0,1,0,0-3.283Zm0,0" transform="translate(-1708.97 -912)" fill="#080a2a"></path><path d="M732.624,4014.358H706.988a1.642,1.642,0,1,0,0,3.283h25.636a1.642,1.642,0,1,0,0-3.283Zm0,0" transform="translate(-1708.97 -912)" fill="#080a2a"></path><path d="M732.624,4021.746H706.988a1.642,1.642,0,1,0,0,3.284h25.636a1.642,1.642,0,1,0,0-3.284Zm0,0" transform="translate(-1708.97 -912)" fill="#080a2a"></path><path d="M732.624,4029.134H706.988a1.642,1.642,0,1,0,0,3.284h25.636a1.642,1.642,0,1,0,0-3.284Zm0,0" transform="translate(-1708.97 -912)" fill="#080a2a"></path><path d="M726.344,4036.523H706.988a1.641,1.641,0,1,0,0,3.283h19.356a1.641,1.641,0,1,0,0-3.283Zm0,0" transform="translate(-1708.97 -912)" fill="#080a2a"></path><path d="M766.293,4023.388a1.641,1.641,0,0,0-.821-1.422l-15.132-8.736a1.642,1.642,0,0,0-2.463,1.421v17.473a1.642,1.642,0,0,0,2.463,1.422l15.132-8.736a1.646,1.646,0,0,0,.821-1.422Zm-15.133,5.893V4017.5l10.207,5.893Zm0,0" transform="translate(-1708.97 -912)" fill="#080a2a"></path><path d="M757.085,4040.463a1.642,1.642,0,1,0,1.642,1.642,1.645,1.645,0,0,0-1.642-1.642Zm0,0" transform="translate(-1708.97 -912)" fill="#080a2a"></path></g></svg> 