<?xml version="1.0" encoding="UTF-8"?> <svg xmlns="http://www.w3.org/2000/svg" width="80" height="61.751" viewBox="0 0 80 61.751"><g transform="translate(278 -3076)"><path d="M1217.834,3991.063H1196.77l-2.151-5.86a4.409,4.409,0,0,0-4.127-2.88h-14.984a4.409,4.409,0,0,0-4.127,2.88l-2.151,5.86h-7.158v-2.3a3.363,3.363,0,0,0-3.358-3.358h-4.955a3.362,3.362,0,0,0-3.358,3.358v2.3h-2.235a5.173,5.173,0,0,0-5.166,5.166v42.679a5.172,5.172,0,0,0,5.166,5.166h69.668a5.172,5.172,0,0,0,5.166-5.166v-42.679A5.173,5.173,0,0,0,1217.834,3991.063Zm-43.221-4.673a.958.958,0,0,1,.9-.624h14.984a.958.958,0,0,1,.9.624l1.715,4.673h-20.2Zm-20.941,2.376a.086.086,0,0,1,.087-.086h4.955a.086.086,0,0,1,.086.086v2.3h-5.128Zm65.884,50.142a1.725,1.725,0,0,1-1.722,1.722h-69.668a1.725,1.725,0,0,1-1.722-1.722v-42.679a1.725,1.725,0,0,1,1.722-1.722h69.668a1.725,1.725,0,0,1,1.722,1.722Z" transform="translate(-1421 -906.323)" fill="#080a2a"></path><path d="M1215.317,4004.094a1.722,1.722,0,1,0,0-3.443,6.033,6.033,0,0,0-6.027,6.026v21.782a6.034,6.034,0,0,0,6.027,6.027,1.722,1.722,0,0,0,0-3.444,2.586,2.586,0,0,1-2.583-2.583v-21.782A2.586,2.586,0,0,1,1215.317,4004.094Z" transform="translate(-1421 -906.323)" fill="#080a2a"></path><path d="M1183,3997.021a20.547,20.547,0,1,0,20.548,20.547A20.571,20.571,0,0,0,1183,3997.021Zm0,37.823a17.276,17.276,0,1,1,17.276-17.276A17.3,17.3,0,0,1,1183,4034.844Z" transform="translate(-1421 -906.323)" fill="#080a2a"></path><path d="M1183,4004.747a12.821,12.821,0,1,0,12.821,12.821A12.835,12.835,0,0,0,1183,4004.747Zm0,22.543a9.722,9.722,0,1,1,9.722-9.722A9.733,9.733,0,0,1,1183,4027.29Z" transform="translate(-1421 -906.323)" fill="#080a2a"></path><path d="M1183,4011.233a6.342,6.342,0,0,0-6.335,6.335,1.55,1.55,0,0,0,3.1,0,3.238,3.238,0,0,1,3.235-3.235,1.55,1.55,0,0,0,0-3.1Z" transform="translate(-1421 -906.323)" fill="#080a2a"></path><path d="M1150.683,4000.651a1.722,1.722,0,1,0,0,3.443,2.586,2.586,0,0,1,2.583,2.583v21.782a2.586,2.586,0,0,1-2.583,2.583,1.722,1.722,0,0,0,0,3.444,6.034,6.034,0,0,0,6.027-6.027v-21.782A6.033,6.033,0,0,0,1150.683,4000.651Z" transform="translate(-1421 -906.323)" fill="#080a2a"></path></g></svg> 