<?xml version="1.0" encoding="UTF-8"?> <svg xmlns="http://www.w3.org/2000/svg" width="88.339" height="119.025" viewBox="0 0 88.339 119.025"><g id="Symbol_18_1" data-name="Symbol 18 – 1" transform="translate(5966.437 -4499.231)"><path id="Path_467" data-name="Path 467" d="M3062.289,5415.151a33.9,33.9,0,1,0-40.062,39.03v5.6h13.328v-5.6a41.858,41.858,0,0,0,26.734-39.03Zm0,0" transform="translate(-8942.712 -871.75)" fill="#fff"></path><path id="Path_468" data-name="Path 468" d="M3040.205,5464.434a4.649,4.649,0,0,0-4.65-4.649H3015.6a4.649,4.649,0,1,0,0,9.3h19.951a4.65,4.65,0,0,0,4.65-4.65Zm0,0" transform="translate(-8942.712 -871.75)" fill="#fff"></path><path id="Path_469" data-name="Path 469" d="M3025.157,5486.928a15.114,15.114,0,0,0,10.4-14.357v-3.487H3014.76v3.487a15.117,15.117,0,0,0,10.4,14.357Zm0,0" transform="translate(-8942.712 -871.75)" fill="#fff"></path><path id="Path_470" data-name="Path 470" d="M3028.008,5433.741a14.737,14.737,0,0,1,10.667-17.941,14.584,14.584,0,1,0-10.518,17.975l-.149-.034Zm0,0" transform="translate(-8942.712 -871.75)" fill="#fff"></path><path id="Path_471" data-name="Path 471" d="M3038.824,5415.835c-.05-.012-.1-.022-.149-.035a14.736,14.736,0,0,0-10.667,17.941c.05.013.1.023.149.034a14.735,14.735,0,0,0,10.667-17.94Zm0,0" transform="translate(-8942.712 -871.75)" fill="#72d8ff"></path><path id="Path_472" data-name="Path 472" d="M3009.2,5415.835l.128-.03a14.6,14.6,0,1,0,10.518,17.966,14.737,14.737,0,0,1-10.646-17.936Zm0,0" transform="translate(-8942.712 -871.75)" fill="#fff"></path><path id="Path_473" data-name="Path 473" d="M3019.972,5433.741a14.737,14.737,0,0,0-10.647-17.936l-.128.03a14.737,14.737,0,0,0,10.646,17.936c.043-.011.085-.019.129-.03Zm0,0" transform="translate(-8942.712 -871.75)" fill="#72d8ff"></path><path id="Path_474" data-name="Path 474" d="M3061.37,5424.222a2.324,2.324,0,0,0-2.865,1.611,39.711,39.711,0,0,1-23.79,26.181,2.322,2.322,0,0,0-1.484,2.167v3.279h-10.462v-21.027a17.044,17.044,0,0,0,18.306-21.173,2.324,2.324,0,0,0-1.676-1.677,16.9,16.9,0,0,0-16.274,4.459,2.768,2.768,0,1,1-5.361,0,16.894,16.894,0,0,0-16.275-4.459,2.323,2.323,0,0,0-1.675,1.676,17.057,17.057,0,0,0,16.442,21.278,17.215,17.215,0,0,0,1.864-.1v21.027h-10.461v-3.279a2.324,2.324,0,0,0-1.485-2.167,39.526,39.526,0,1,1,52.671-46.245,2.325,2.325,0,0,0,4.518-1.1,44.38,44.38,0,0,0-15.43-24.095,43.7,43.7,0,0,0-27.488-9.594,44.176,44.176,0,0,0-17.436,84.762v2.118a6.973,6.973,0,0,0,0,13.148v1.562a17.435,17.435,0,0,0,34.871,0v-1.562a6.973,6.973,0,0,0,0-13.149v-2.118a44.389,44.389,0,0,0,25.1-28.655,2.325,2.325,0,0,0-1.612-2.865Zm-34.957-2.892a6.145,6.145,0,1,1-3.519,10.435,12.265,12.265,0,0,1,3.519-10.435ZM3018,5431.765a12.4,12.4,0,1,1-3.518-10.435,12.27,12.27,0,0,1,3.518,10.435Zm15.236,40.806a12.786,12.786,0,1,1-25.572,0v-1.162h25.572Zm2.324-5.812h-30.221a2.324,2.324,0,1,1,0-4.649h30.221a2.324,2.324,0,1,1,0,4.649Zm0,0" transform="translate(-8942.712 -871.75)" fill="#080a2a"></path><path id="Path_475" data-name="Path 475" d="M3062.289,5412.826a2.324,2.324,0,0,0-2.324,2.325v.2a2.324,2.324,0,0,0,2.314,2.336h.011a2.323,2.323,0,0,0,2.324-2.313v-.222a2.325,2.325,0,0,0-2.325-2.325Zm0,0" transform="translate(-8942.712 -871.75)" fill="#080a2a"></path><path id="Path_476" data-name="Path 476" d="M3022.767,5401.142v-15.283a2.325,2.325,0,0,0-4.65,0v15.283a2.325,2.325,0,0,0,4.65,0Zm0,0" transform="translate(-8942.712 -871.75)" fill="#080a2a"></path><path id="Path_477" data-name="Path 477" d="M3002.55,5395.068a2.326,2.326,0,0,0,0,3.288l4.435,4.431a2.324,2.324,0,0,0,3.286-3.288l-4.434-4.432a2.325,2.325,0,0,0-3.288,0Zm0,0" transform="translate(-8942.712 -871.75)" fill="#080a2a"></path><path id="Path_478" data-name="Path 478" d="M3035.05,5395.074l-4.714,4.718a2.324,2.324,0,0,0,3.289,3.285l4.714-4.718a2.324,2.324,0,1,0-3.289-3.285Zm0,0" transform="translate(-8942.712 -871.75)" fill="#080a2a"></path><path id="Path_479" data-name="Path 479" d="M3020.475,5412.611a2.325,2.325,0,1,0-1.644-.681,2.323,2.323,0,0,0,1.644.681Zm0,0" transform="translate(-8942.712 -871.75)" fill="#080a2a"></path></g></svg> 