<?xml version="1.0" encoding="UTF-8"?> <svg xmlns="http://www.w3.org/2000/svg" width="91.368" height="55" viewBox="0 0 91.368 55"><g transform="translate(1376 -3072)"><path d="M-80.1,4215h-8.031a1.785,1.785,0,0,0-1.785,1.785,1.785,1.785,0,0,0,1.785,1.784h6.246v47.862h-63.707a1.785,1.785,0,0,0-1.785,1.784,1.785,1.785,0,0,0,1.785,1.785H-80.1a1.784,1.784,0,0,0,1.784-1.785v-51.43A1.784,1.784,0,0,0-80.1,4215Zm0,0" transform="translate(-1206.316 -1143)" fill="#080a2a"></path><path d="M-159.869,4266.431h-6.246v-47.862h63.707a1.784,1.784,0,0,0,1.785-1.784,1.785,1.785,0,0,0-1.785-1.785H-167.9a1.785,1.785,0,0,0-1.784,1.785v51.43A1.785,1.785,0,0,0-167.9,4270h8.031a1.785,1.785,0,0,0,1.785-1.785,1.786,1.786,0,0,0-1.785-1.784Zm0,0" transform="translate(-1206.316 -1143)" fill="#080a2a"></path><path d="M-152.73,4266.431a1.788,1.788,0,0,0-1.785,1.784A1.788,1.788,0,0,0-152.73,4270a1.788,1.788,0,0,0,1.784-1.785,1.787,1.787,0,0,0-1.784-1.784Zm0,0" transform="translate(-1206.316 -1143)" fill="#080a2a"></path><path d="M-95.27,4218.569a1.788,1.788,0,0,0,1.785-1.784A1.789,1.789,0,0,0-95.27,4215a1.788,1.788,0,0,0-1.784,1.785,1.787,1.787,0,0,0,1.784,1.784Zm0,0" transform="translate(-1206.316 -1143)" fill="#080a2a"></path><g transform="translate(-1206.316 -1143)"><path d="M-106.34,4230.636h-7.484v-2.748a3.343,3.343,0,0,0-3.34-3.34H-142.87a3.343,3.343,0,0,0-3.34,3.34v18.265a3.343,3.343,0,0,0,3.34,3.34h3.424v6.131a.64.64,0,0,0,1.041.487l3.232-2.694a3.347,3.347,0,0,0,3.126,2.165h13.3l7.941,6.617a.64.64,0,0,0,1.04-.487v-6.13h3.425a3.344,3.344,0,0,0,3.34-3.341v-18.265A3.344,3.344,0,0,0-106.34,4230.636Zm2.072,21.6a2.074,2.074,0,0,1-2.072,2.072H-110.4a.634.634,0,0,0-.634.634v5.411l-7.078-5.9a.636.636,0,0,0-.406-.147h-13.53a2.075,2.075,0,0,1-2.052-1.791l3.635-3.029h13.3a3.343,3.343,0,0,0,3.34-3.34V4238.4a.634.634,0,0,0-.634-.635.634.634,0,0,0-.634.635v7.751a2.075,2.075,0,0,1-2.072,2.072h-13.53a.634.634,0,0,0-.406.147l-4.056,3.38h0l-3.021,2.518v-5.411a.634.634,0,0,0-.634-.634h-4.059a2.075,2.075,0,0,1-2.072-2.072v-18.265a2.075,2.075,0,0,1,2.072-2.072h25.706a2.075,2.075,0,0,1,2.072,2.072v7.47a.634.634,0,0,0,.634.634.634.634,0,0,0,.634-.634V4231.9h7.484a2.074,2.074,0,0,1,2.072,2.071Z" fill="#080a2a"></path><path d="M-110.412,4262.843a1.108,1.108,0,0,1-.713-.26l-7.8-6.5h-13.118a3.863,3.863,0,0,1-3.3-1.872l-2.743,2.286a1.12,1.12,0,0,1-1.2.15,1.123,1.123,0,0,1-.657-1.021v-5.631h-2.924a3.844,3.844,0,0,1-3.84-3.84v-18.265a3.844,3.844,0,0,1,3.84-3.84h25.706a3.844,3.844,0,0,1,3.84,3.84v2.248h6.984a3.844,3.844,0,0,1,3.84,3.841v18.264a3.845,3.845,0,0,1-3.84,3.84h-2.925v5.631a1.119,1.119,0,0,1-.656,1.02A1.145,1.145,0,0,1-110.412,4262.843Zm-24.541-10.26.248.657a2.856,2.856,0,0,0,2.659,1.841h13.481l8.08,6.734a.129.129,0,0,0,.139.012.129.129,0,0,0,.081-.115v-6.631h3.925a2.843,2.843,0,0,0,2.84-2.84v-18.264a2.843,2.843,0,0,0-2.84-2.841h-7.984v-3.248a2.843,2.843,0,0,0-2.84-2.84H-142.87a2.843,2.843,0,0,0-2.84,2.84v18.265a2.843,2.843,0,0,0,2.84,2.84h3.924v6.631a.128.128,0,0,0,.081.115.127.127,0,0,0,.14-.011Zm24.42,8.843-7.9-6.582-13.615-.031a2.579,2.579,0,0,1-2.548-2.223l-.037-.275,3.986-3.322h13.481a2.843,2.843,0,0,0,2.84-2.84V4238.4c0-.148-.268-.148-.268,0v7.752a2.575,2.575,0,0,1-2.572,2.572h-13.529l-7.984,6.612v-6.478a.134.134,0,0,0-.135-.134h-4.058a2.575,2.575,0,0,1-2.572-2.572v-18.265a2.575,2.575,0,0,1,2.572-2.572h25.706a2.575,2.575,0,0,1,2.572,2.572v7.469c0,.149.268.149.268,0V4231.4h7.984a2.575,2.575,0,0,1,2.571,2.573v18.264a2.574,2.574,0,0,1-2.571,2.572H-110.4a.134.134,0,0,0-.134.134Zm-23.013-8.713a1.579,1.579,0,0,0,1.5,1.1h13.529a1.134,1.134,0,0,1,.725.262l6.259,5.216v-4.344a1.135,1.135,0,0,1,1.134-1.134h4.059a1.573,1.573,0,0,0,1.571-1.572v-18.264a1.574,1.574,0,0,0-1.571-1.573h-6.984v2.953a1.136,1.136,0,0,1-1.134,1.135,1.136,1.136,0,0,1-1.134-1.135v-7.469a1.574,1.574,0,0,0-1.572-1.572H-142.87a1.574,1.574,0,0,0-1.572,1.572v18.265a1.574,1.574,0,0,0,1.572,1.572h4.058a1.135,1.135,0,0,1,1.135,1.134v4.343l6.258-5.214a1.124,1.124,0,0,1,.726-.263h13.529a1.574,1.574,0,0,0,1.572-1.572V4238.4a1.135,1.135,0,0,1,1.134-1.133,1.135,1.135,0,0,1,1.134,1.133v7.752a3.844,3.844,0,0,1-3.84,3.84h-13.119Z" fill="#080a2a"></path></g><g transform="translate(-1206.316 -1143)"><path d="M-124.246,4228.575c-2.175-.091-4.238,1.168-5.771,3.488-1.533-2.32-3.6-3.579-5.771-3.488a5.147,5.147,0,0,0-4.517,3.139c-1,2.294-.382,5,1.689,7.41a29.675,29.675,0,0,0,8.315,6.92.643.643,0,0,0,.567,0,29.655,29.655,0,0,0,8.316-6.92c2.07-2.415,2.686-5.116,1.689-7.41A5.147,5.147,0,0,0-124.246,4228.575Zm1.865,9.724a29.924,29.924,0,0,1-7.636,6.456,29.951,29.951,0,0,1-7.636-6.456c-1.742-2.032-2.285-4.248-1.489-6.079a3.889,3.889,0,0,1,3.407-2.378l.165,0c1.89,0,3.7,1.361,4.994,3.761a.635.635,0,0,0,.559.334.632.632,0,0,0,.558-.334c1.33-2.47,3.212-3.841,5.16-3.758a3.889,3.889,0,0,1,3.407,2.378C-120.1,4234.051-120.639,4236.267-122.381,4238.3Z" fill="#080a2a"></path><path d="M-130.018,4246.609a1.136,1.136,0,0,1-.5-.118,30.142,30.142,0,0,1-8.474-7.042c-2.2-2.566-2.843-5.458-1.767-7.933a5.644,5.644,0,0,1,4.955-3.441,6.983,6.983,0,0,1,5.792,3.122,6.936,6.936,0,0,1,5.791-3.122h0a5.643,5.643,0,0,1,4.955,3.441c1.077,2.475.433,5.367-1.768,7.933a30.113,30.113,0,0,1-8.471,7.042A1.148,1.148,0,0,1-130.018,4246.609Zm-5.549-17.539c-.067,0-.133,0-.2.005a4.647,4.647,0,0,0-4.08,2.839c-.918,2.111-.331,4.62,1.61,6.885a29.046,29.046,0,0,0,8.159,6.8.146.146,0,0,0,.122,0,28.978,28.978,0,0,0,8.158-6.8c1.942-2.265,2.528-4.774,1.61-6.885a4.647,4.647,0,0,0-4.08-2.839h0c-2-.106-3.887,1.076-5.332,3.264l-.417.632-.417-.632C-131.831,4230.225-133.647,4229.07-135.567,4229.07Zm5.55,16.26-.245-.139a30.562,30.562,0,0,1-7.771-6.567c-1.871-2.183-2.443-4.59-1.568-6.6a4.387,4.387,0,0,1,3.845-2.679l.186,0c2.077,0,4.057,1.467,5.435,4.024a.141.141,0,0,0,.237,0c1.424-2.646,3.476-4.1,5.62-4.021a4.383,4.383,0,0,1,3.844,2.679c.876,2.013.305,4.419-1.567,6.6h0a30.507,30.507,0,0,1-7.771,6.567Zm-5.553-14.991-.147,0a3.391,3.391,0,0,0-2.967,2.077c-.716,1.648-.2,3.674,1.41,5.555a30.025,30.025,0,0,0,7.257,6.205,29.955,29.955,0,0,0,7.256-6.205h0c1.612-1.882,2.126-3.907,1.409-5.555a3.388,3.388,0,0,0-2.969-2.077c-1.724-.1-3.462,1.2-4.7,3.5a1.182,1.182,0,0,1-2,0C-132.213,4231.614-133.873,4230.339-135.57,4230.339Z" fill="#080a2a"></path></g></g></svg> 