<?xml version="1.0" encoding="UTF-8"?> <svg xmlns="http://www.w3.org/2000/svg" xmlns:xlink="http://www.w3.org/1999/xlink" width="119.025" height="119.025" viewBox="0 0 119.025 119.025"><defs><clipPath id="clip-path"><rect id="Rectangle_769" data-name="Rectangle 769" width="119.025" height="119.025" transform="translate(2748.54 5370.981)" fill="none"></rect></clipPath></defs><g id="Symbol_16_1" data-name="Symbol 16 – 1" transform="translate(6157.172 -4076.231)"><path id="Path_459" data-name="Path 459" d="M2865.254,5482.25a6.973,6.973,0,0,0-1.826-6.558l-32.4-32.4-4.732,4.733,32.4,32.4a6.971,6.971,0,0,0,6.559,1.826Zm0,0" transform="translate(-8905.712 -1294.75)" fill="#fff"></path><path id="Path_460" data-name="Path 460" d="M2841.207,5453.469l-9.962,9.962-10.177-10.179,9.96-9.961Zm0,0" transform="translate(-8905.712 -1294.75)" fill="#fff"></path><path id="Path_461" data-name="Path 461" d="M2801.171,5373.4a44.726,44.726,0,1,0,39.141,44.377,44.728,44.728,0,0,0-39.141-44.377Zm0,0" transform="translate(-8905.712 -1294.75)" fill="#fff"></path><path id="Path_462" data-name="Path 462" d="M2829.131,5417.778a33.542,33.542,0,1,1-33.541-33.542,33.542,33.542,0,0,1,33.541,33.542Zm0,0" transform="translate(-8905.712 -1294.75)" fill="#fff"></path><g id="Group_68" data-name="Group 68" transform="translate(-8905.712 -1294.75)"><g id="Group_67" data-name="Group 67" clip-path="url(#clip-path)"><path id="Path_463" data-name="Path 463" d="M2775.551,5444.674a33.543,33.543,0,0,0,52.768-34.237l-26.051,26.052-6.846-6.847-5.854-5.852-16.693,16.695a33.618,33.618,0,0,0,2.676,4.189Zm0,0" fill="#72d8ff"></path><path id="Path_464" data-name="Path 464" d="M2865.075,5474.045l-30.267-30.267a47.05,47.05,0,1,0-78.825-.583,2.329,2.329,0,1,0,3.918-2.52,42.391,42.391,0,1,1,13.31,13.119,2.329,2.329,0,1,0-2.462,3.955,47.042,47.042,0,0,0,50.788-.732l30.283,30.283a9.24,9.24,0,0,0,6.56,2.706,9.383,9.383,0,0,0,6.7-15.961Zm-36.216-23q1.679-1.677,3.15-3.479l5.9,5.9-6.667,6.667-5.908-5.909a46.95,46.95,0,0,0,3.523-3.18Zm32.875,32.911a4.686,4.686,0,0,1-6.62.047l-20.576-20.574,6.667-6.667,20.575,20.575a4.685,4.685,0,0,1-.046,6.619Zm0,0" fill="#080a2a"></path></g></g><path id="Path_465" data-name="Path 465" d="M2765.553,5447.692a2.33,2.33,0,0,0-3.285,3.305l.055.055a2.329,2.329,0,1,0,3.285-3.3Zm0,0" transform="translate(-8905.712 -1294.75)" fill="#080a2a"></path><path id="Path_466" data-name="Path 466" d="M2795.59,5453.648a35.87,35.87,0,1,0-35.871-35.871,35.912,35.912,0,0,0,35.871,35.871Zm0-67.082a31.212,31.212,0,1,1-26.646,47.45l13.779-13.779,11.051,11.052a2.33,2.33,0,0,0,3.294,0l17.361-17.36v.7a2.329,2.329,0,1,0,4.658,0v-6.327a2.329,2.329,0,0,0-2.329-2.329h-6.328a2.329,2.329,0,1,0,0,4.658h.705l-15.713,15.712L2784.37,5415.3a2.328,2.328,0,0,0-3.3,0l-14.352,14.351a31.21,31.21,0,0,1,28.867-43.081Zm0,0" transform="translate(-8905.712 -1294.75)" fill="#080a2a"></path></g></svg> 