<?xml version="1.0" encoding="UTF-8"?> <svg xmlns="http://www.w3.org/2000/svg" width="89.972" height="89.539" viewBox="0 0 89.972 89.539"><g transform="translate(649 -3321)"><path d="M940.747,4035.728H939.6v-46.16a4.488,4.488,0,0,0-4.483-4.483H917.106a1.318,1.318,0,1,0,0,2.636h18.008a1.849,1.849,0,0,1,1.847,1.847v46.16H861.023v-46.16a1.85,1.85,0,0,1,1.847-1.847h18.024a1.318,1.318,0,1,0,0-2.636H862.87a4.487,4.487,0,0,0-4.482,4.483v46.16h-1.136a3.242,3.242,0,0,0-3.238,3.238,7.582,7.582,0,0,0,7.574,7.573h74.824a7.582,7.582,0,0,0,7.574-7.573,3.242,3.242,0,0,0-3.239-3.238Zm-50.313,8.175a2.422,2.422,0,0,1,2.286-1.629h12.56a2.422,2.422,0,0,1,2.286,1.629Zm45.978,0h-26.14a5.061,5.061,0,0,0-4.992-4.265H892.72a5.061,5.061,0,0,0-4.992,4.265h-26.14a4.943,4.943,0,0,1-4.938-4.937.6.6,0,0,1,.6-.6h83.495a.6.6,0,0,1,.6.6,4.943,4.943,0,0,1-4.938,4.937Zm0,0" transform="translate(-1503.014 -636)" fill="#080a2a"></path><path d="M878.657,4004.606a6.121,6.121,0,0,0-1.321,2.958l-2,13.051a2.96,2.96,0,0,0,5.234,2.3l5.237-6.519a3.476,3.476,0,0,1,1.922-1.207c.248,1.009.51,1.941.784,2.773a3.287,3.287,0,0,0,2.475,2.2,90.123,90.123,0,0,0-2.955,10.337H866.315v-37.765h14.2a1.318,1.318,0,1,0,0-2.636H865.468a1.792,1.792,0,0,0-1.789,1.789v39.459a1.79,1.79,0,0,0,1.789,1.788h67.049a1.79,1.79,0,0,0,1.789-1.788v-39.459a1.792,1.792,0,0,0-1.789-1.789H917.488a1.318,1.318,0,1,0,0,2.636H931.67V4030.5H910.14a90.842,90.842,0,0,0-2.967-10.373,3.291,3.291,0,0,0,2.311-2.162c.274-.832.536-1.764.784-2.773a3.479,3.479,0,0,1,1.922,1.207l5.237,6.519a2.964,2.964,0,0,0,1.8,1.063,2.906,2.906,0,0,0,.5.043,2.96,2.96,0,0,0,2.929-3.408l-2-13.051a6.13,6.13,0,0,0-1.321-2.958l-6.684-8.13c.058-1.456.09-2.905.09-4.325a50.249,50.249,0,0,0-2.667-15.733c0-.01,0-.02-.008-.031-.371-1.121-.768-2.207-1.181-3.258a.569.569,0,0,1-.021-.054c-.061-.152-.121-.3-.182-.453-.023-.059-.046-.116-.07-.174-.053-.129-.1-.257-.158-.385-.041-.1-.081-.2-.123-.293s-.076-.185-.116-.277c-.084-.2-.168-.4-.253-.589l-.039-.089c-.08-.183-.161-.364-.241-.544l-.029-.066a91.688,91.688,0,0,0-6.022-11.062c-.167-.27-.323-.521-.467-.755l-.014-.023,0,0-.139-.227A2.342,2.342,0,0,0,899,3957a2.444,2.444,0,0,0-.6.077,2.347,2.347,0,0,0-1.411,1.056q-.277.454-.623,1.011a91.526,91.526,0,0,0-6.018,11.051c-.012.028-.024.056-.037.083-.076.172-.153.344-.229.517-.016.039-.034.077-.05.115-.083.191-.166.384-.249.577l-.131.314c-.036.086-.072.17-.107.256-.055.133-.109.267-.164.4l-.064.157c-.062.155-.125.31-.186.467l-.013.034c-.416,1.055-.815,2.146-1.188,3.272l-.007.03a50.263,50.263,0,0,0-2.667,15.733c0,1.42.031,2.869.09,4.326Zm33.78-4.249,4.87,5.924a3.477,3.477,0,0,1,.751,1.681l2,13.052a.312.312,0,0,1-.094.28.316.316,0,0,1-.282.089.33.33,0,0,1-.2-.117l-5.238-6.519a6.106,6.106,0,0,0-3.406-2.128,103.185,103.185,0,0,0,1.6-12.262Zm-4.969,30.142h-16.76c.511-2.552,2.04-7.231,3.034-10.269h2.24c.227.694.471,1.419.729,2.165a2.383,2.383,0,0,0,2.282,1.628h0a2.385,2.385,0,0,0,2.282-1.626c.258-.748.5-1.473.73-2.167h2.428c.994,3.038,2.522,7.717,3.034,10.269Zm-10.215-22.236c.179-.872.4-1.861.655-2.942.22-.934.469-1.947.74-3.011.112-.44.228-.889.347-1.343,1.519,5.8,2.381,9.981,2.342,11.41-.015.531-.234,2.035-1.544,6.134h0c-.244.762-.511,1.572-.8,2.416-.287-.844-.555-1.654-.8-2.416h0c-1.307-4.1-1.526-5.6-1.54-6.134a21.137,21.137,0,0,1,.6-4.114Zm-2.843-40.435c.029-.055.057-.112.086-.166.035-.07.071-.138.107-.208.053-.1.1-.2.158-.3l.061-.118c.073-.136.144-.271.215-.4l.013-.024c1.358-2.532,2.64-4.6,3.558-6.087q.209-.334.392-.633.183.3.392.633c.971,1.569,2.349,3.795,3.792,6.528l.05.094c.057.108.114.218.171.328l.094.181c.036.067.071.136.1.2a67.494,67.494,0,0,1,3.358,7.627H891.037a67.779,67.779,0,0,1,3.373-7.655Zm-4.266,10.291h17.712a47.128,47.128,0,0,1,2.257,14.032c0,1.548-.038,3.13-.109,4.718,0,.019,0,.036,0,.055-.349,7.737-1.494,15.581-3.022,20.215a.657.657,0,0,1-.624.455h-3.52a23.518,23.518,0,0,0,1.136-5.145c.068-2.5-1.7-9.546-3.2-15.014a1.83,1.83,0,0,0-1.784-1.362h0a1.831,1.831,0,0,0-1.784,1.363c-.4,1.45-.77,2.871-1.114,4.225-.275,1.078-.528,2.106-.751,3.055-.262,1.1-.488,2.12-.672,3.016a23.894,23.894,0,0,0-.65,4.716,23.451,23.451,0,0,0,1.133,5.146h-3.51a.657.657,0,0,1-.624-.455c-1.528-4.634-2.673-12.478-3.022-20.215,0-.019,0-.036,0-.055-.071-1.587-.109-3.17-.109-4.718a47.128,47.128,0,0,1,2.257-14.032Zm-2.982,34.5a6.111,6.111,0,0,0-3.406,2.128l-5.238,6.519a.324.324,0,0,1-.2.116.309.309,0,0,1-.283-.088.312.312,0,0,1-.093-.28l2-13.052a3.477,3.477,0,0,1,.751-1.681l4.87-5.925a103.175,103.175,0,0,0,1.6,12.263Zm0,0" transform="translate(-1503.014 -636)" fill="#080a2a"></path><path d="M899.088,3995.408a6.793,6.793,0,1,0-6.794-6.793,6.8,6.8,0,0,0,6.794,6.793Zm0-10.952a4.158,4.158,0,1,1-4.158,4.159,4.163,4.163,0,0,1,4.158-4.159Zm0,0" transform="translate(-1503.014 -636)" fill="#080a2a"></path></g></svg> 